# AST/ASF file generated using VICON BodyLanguage
# -----------------------------------------------
:version 1.10
:name VICON
:units
  mass 1.0
  length 0.45
  angle deg
:documentation
   .ast/.asf automatically generated from VICON data using
   VICON BodyBuilder and BodyLanguage model FoxedUp or BRILLIANT.MOD
:root
   order TX TY TZ RX RY RZ
   axis XYZ
   position 0 0 0  
   orientation 0 0 0 
:bonedata
  begin
     id 1 
     name lhipjoint
     direction 0.677091 -0.635792 0.370561 
     length 2.74323 
     axis 0 0 0  XYZ
  end
  begin
     id 2 
     name lfemur
     direction 0.34202 -0.939693 0  
     length 7.44995  
     axis 0 0 20  XYZ
    dof rx ry rz
    limits (-160.0 20.0)
           (-70.0 70.0)
           (-60.0 70.0)
  end
  begin
     id 3 
     name ltibia
     direction 0.34202 -0.939693 0   
     length 7.34467   
     axis 0 0 20   XYZ
    dof rx
    limits (-10.0 170.0)
  end
  begin
     id 4 
     name lfoot
     direction 0.101953 -0.280114 0.954537   
     length 1.72105   
     axis -90 7.62852e-016 20   XYZ
    dof rx rz
    limits (-45.0 90.0)
           (-70.0 20.0)
  end
  begin
     id 5 
     name ltoes
     direction 1.53537e-011 -4.21915e-011 1   
     length 0.865872   
     axis -90 7.62852e-016 20   XYZ
    dof rx
    limits (-90.0 20.0)
  end
  begin
     id 6 
     name rhipjoint
     direction -0.695735 -0.620586 0.361699   
     length 2.81045  
     axis 0 0 0  XYZ 
  end
  begin
     id 7 
     name rfemur
     direction -0.34202 -0.939693 0   
     length 7.29387   
     axis 0 0 -20   XYZ
    dof rx ry rz
    limits (-160.0 20.0)
           (-70.0 70.0)
           (-70.0 60.0)
  end
  begin
     id 8 
     name rtibia
     direction -0.34202 -0.939693 0   
     length 7.44935   
     axis 0 0 -20   XYZ
    dof rx
    limits (-10.0 170.0)
 end
 begin
     id 9 
     name rfoot
     direction -0.104163 -0.286184 0.952496   
     length 1.77731  
     axis -90 -7.62852e-016 -20   XYZ
    dof rx rz
    limits (-45.0 90.0)
           (-20.0 70.0)
  end
  begin
     id 10 
     name rtoes
     direction -1.5355e-011 -4.21888e-011 1   
     length 0.892424   
     axis -90 -7.62852e-016 -20   XYZ
    dof rx
    limits (-90.0 20.0)
  end
  begin
     id 11 
     name lowerback
     direction 0.0100202 0.997226 -0.0737589   
     length 2.16892   
     axis 0 0 0   XYZ
    dof rx ry rz
    limits (-20.0 45.0)
           (-30.0 30.0)
           (-30.0 30.0)
  end
  begin
     id 12 
     name upperback
     direction 0.00432398 0.999988 -0.00215019   
     length 2.17326   
     axis 0 0 0   XYZ
    dof rx ry rz
    limits (-20.0 45.0)
           (-30.0 30.0)
           (-30.0 30.0)
  end
  begin
     id 13 
     name thorax
     direction -0.00195047 0.999485 0.0320434   
     length 2.18139   
     axis 0 0 0   XYZ
    dof rx ry rz
    limits (-20.0 45.0)
           (-30.0 30.0)
           (-30.0 30.0)
  end
  begin
     id 14 
     name lowerneck
     direction 0.00782762 0.986241 0.165128   
     length 1.88415   
     axis 0 0 0   XYZ
    dof rx ry rz
    limits (-20.0 45.0)
           (-30.0 30.0)
           (-30.0 30.0)
  end
  begin
     id 15 
     name upperneck
     direction 0.00988667 0.981098 -0.193258   
     length 1.9242   
     axis 0 0 0   XYZ
    dof rx ry rz
    limits (-20.0 45.0)
           (-30.0 30.0)
           (-30.0 30.0)
  end
  begin
     id 16
     name head
     direction 0.00252199 0.996513 -0.0833958  
     length 1.93887  
     axis 0 0 0   XYZ
    dof rx ry rz
    limits (-20.0 45.0)
           (-30.0 30.0)
           (-30.0 30.0)
  end
  begin
     id 17 
     name lclavicle
     direction 0.929492 0.368193 -0.0218667  
     length 3.5955  
     axis 0 0 0   XYZ
    dof ry rz
    limits (-20.0 10.0)
           (0.0 20.0)
  end
  begin
     id 18 
     name lhumerus
     direction 1 -4.48972e-011 1.41911e-027   
     length 5.2795   
     axis 180 -30 -90   XYZ
    dof rx ry rz
    limits (-60.0 90.0)
           (-90.0 90.0)
           (-90.0 90.0)
  end
  begin
     id 19
     name lradius
     direction 1 -4.48963e-011 7.05772e-027   
     length 3.53504   
     axis 180 -30 -90   XYZ
    dof rx
    limits (-10.0 170.0)
  end
  begin
     id 20
     name lwrist
     direction 1 -4.48957e-011 9.54866e-027   
     length 1.76752   
     axis -7.69462e-015 90 90   XYZ
    dof ry
    limits (-180.0 0.0)
 end
  begin
     id 21 
     name lhand
     direction 1 -4.48979e-011 1.90973e-026   
     length 0.667948   
     axis -1.21857e-014 90 90   XYZ
    dof rx rz
    limits (-90.0 90.0)
           (-45.0 45.0)
  end
  begin
     id 22 
     name lfingers
     direction 1 -4.48987e-011 3.81946e-026   
     length 0.538517   
     axis -2.43714e-014 90 90   XYZ
    dof rx
    limits (0.0 90.0)
  end
  begin
     id 23
     name lthumb
     direction 0.707107 -6.34962e-011 0.707107   
     length 0.773206   
     axis -90 45 2.85299e-015   XYZ
    dof rx rz
    limits (-45.0 45.0)
           (-45.0 45.0)
  end
  begin
     id 24 
     name rclavicle
     direction -0.898763 0.414256 -0.143584   
     length 3.5176  
     axis 0 0 0   XYZ 
    dof ry rz
    limits (-10.0 20.0)
           (-20.0 0.0)
  end
  begin
     id 25 
     name rhumerus
     direction -1 -4.48971e-011 1.129e-027  
     length 5.25035   
     axis 180 30 90   XYZ
    dof rx ry rz
    limits (-90.0 60.0)
           (-90.0 90.0)
           (-90.0 90.0)
  end
  begin
     id 26 
     name rradius
     direction -1 -4.48955e-011 6.34664e-027   
     length 3.58884   
     axis 180 30 90   XYZ
    dof rx
    limits (-10.0 170.0)
  end
  begin
     id 27 
     name rwrist
     direction -1 -4.48966e-011 9.54866e-027   
     length 1.79442   
     axis -7.69462e-015 -90 -90   XYZ
    dof ry
    limits (-180.0 0.0)
  end
  begin
     id 28
     name rhand
     direction -1 -4.48973e-011 1.90973e-026   
     length 0.779235   
     axis -1.21857e-014 -90 -90   XYZ
    dof rx rz
    limits (-90.0 90.0)
           (-45.0 45.0)
  end
  begin
     id 29
     name rfingers
     direction -1 -4.48984e-011 3.81946e-026   
     length 0.62824   
     axis -2.43714e-014 -90 -90   XYZ
    dof rx
    limits (0.0 90.0)
  end
  begin
     id 30
     name rthumb
     direction -0.707107 -6.34968e-011 0.707107   
     length 0.90203   
     axis -90 -45 -2.85299e-015   XYZ
    dof rx rz
    limits (-45.0 45.0)
           (-45.0 45.0)
  end
:hierarchy
  begin
    root lhipjoint rhipjoint lowerback
    lhipjoint lfemur
    lfemur ltibia
    ltibia lfoot
    lfoot ltoes
    rhipjoint rfemur
    rfemur rtibia
    rtibia rfoot
    rfoot rtoes
    lowerback upperback
    upperback thorax
    thorax lowerneck lclavicle rclavicle
    lowerneck upperneck
    upperneck head
    lclavicle lhumerus
    lhumerus lradius
    lradius lwrist
    lwrist lhand lthumb
    lhand lfingers
    rclavicle rhumerus
    rhumerus rradius
    rradius rwrist
    rwrist rhand rthumb
    rhand rfingers
  end

#!OML:ASF I:\Random Stuff\random\construction\7_22_03\Session 2\subj1.ASF
:FULLY-SPECIFIED
:DEGREES
62
root 11.2149 17.5905 -5.37738 -2.20099 79.2022 -5.13766
lowerback 2.04275 0.220611 0.362545
upperback -1.4169 0.346794 1.31967
thorax -2.60509 0.182909 1.13638
lowerneck -19.0048 -5.22581 -5.2089
upperneck 23.7203 -7.16479 5.81377
head 11.2591 -2.92068 1.90445
rclavicle -2.19533e-014 3.97569e-016
rhumerus -33.0937 -0.400633 -82.1617
rradius 28.1916
rwrist 0.5112
rhand -18.6124 19.2782
rfingers 7.12502
rthumb 7.67923 -10.5623
lclavicle -2.19533e-014 3.97569e-016
lhumerus -33.3442 1.86936 86.8162
lradius 26.9058
lwrist 24.8634
lhand -20.3315 58.3972
lfingers 7.12502
lthumb 6.01975 88.2917
rfemur -1.7426 16.9594 22.3976
rtibia 13.4093
rfoot -9.49246 -24.7681
rtoes -13.4659
lfemur -4.55732 -16.8475 -17.6876
ltibia 19.3012
lfoot -17.412 24.4016
ltoes -18.6129
63
root 11.2048 17.591 -5.35888 -2.38264 79.2545 -5.38865
lowerback 2.10833 0.144272 0.375446
upperback -1.38858 0.246605 1.35415
thorax -2.61126 0.132979 1.16873
lowerneck -19.2502 -5.12164 -5.10994
upperneck 24.3988 -7.00058 5.58876
head 11.5394 -2.84579 1.83301
rclavicle -1.79714e-014 -7.95139e-015
rhumerus -33.1934 -0.570056 -82.0934
rradius 28.4528
rwrist 0.766563
rhand -18.4404 19.1064
rfingers 7.12502
rthumb 7.84527 -10.7281
lclavicle -1.79714e-014 -7.95139e-015
lhumerus -33.1435 1.53823 87.0417
lradius 27.7279
lwrist 25.2585
lhand -20.3203 58.5579
lfingers 7.12502
lthumb 6.0306 88.4521
rfemur -1.79991 17.0954 22.512
rtibia 13.3646
rfoot -9.46796 -24.9385
rtoes -13.3762
lfemur -4.74313 -16.3529 -17.4764
ltibia 19.3738
lfoot -17.2944 23.8778
ltoes -18.8975
64
root 11.1916 17.5941 -5.33856 -2.68984 79.33 -5.78841
lowerback 2.22034 0.097889 0.416644
upperback -1.38783 0.188338 1.38245
thorax -2.67253 0.103573 1.17717
lowerneck -19.5533 -5.02053 -5.02031
upperneck 25.2073 -6.81522 5.29104
head 11.8817 -2.7687 1.73956
rclavicle 5.25537e-015 3.97569e-016
rhumerus -33.5108 -0.862761 -81.974
rradius 28.9278
rwrist 1.12601
rhand -18.2454 19.0432
rfingers 7.12502
rthumb 8.03353 -10.7841
lclavicle 5.25537e-015 3.97569e-016
lhumerus -32.9574 1.27382 87.2406
lradius 28.5635
lwrist 25.5173
lhand -20.2393 58.497
lfingers 7.12502
lthumb 6.10877 88.3889
rfemur -1.80969 17.6422 22.6803
rtibia 13.1931
rfoot -9.41557 -25.4623
rtoes -12.5433
lfemur -5.00123 -15.7548 -17.217
ltibia 19.5026
lfoot -17.1104 23.2875
ltoes -19.555
65
root 11.1747 17.5993 -5.31789 -3.10238 79.4214 -6.3467
lowerback 2.32609 0.0730187 0.485487
upperback -1.37964 0.159794 1.41221
thorax -2.72309 0.0884922 1.17039
lowerneck -19.7332 -4.81813 -4.82198
upperneck 25.8538 -6.51602 5.00311
head 12.1314 -2.63511 1.65144
rclavicle -2.09966e-015 0
rhumerus -33.8311 -1.08171 -81.8774
rradius 29.4544
rwrist 1.29431
rhand -18.1355 18.9977
rfingers 7.12502
rthumb 8.13959 -10.8255
lclavicle -2.09966e-015 0
lhumerus -32.7255 0.909027 87.4796
lradius 29.4325
lwrist 25.8433
lhand -20.2332 58.2029
lfingers 7.12502
lthumb 6.11468 88.0947
rfemur -1.80707 18.2536 22.8682
rtibia 12.8588
rfoot -9.2273 -26.0572
rtoes -11.7217
lfemur -5.3731 -15.1947 -16.9081
ltibia 19.6884
lfoot -16.9139 22.7324
ltoes -20.2608
66
root 11.1541 17.6052 -5.29648 -4.01684 79.5281 -7.42645
lowerback 2.45764 0.0602371 0.603855
upperback -1.36261 0.151036 1.47973
thorax -2.77948 0.0828805 1.17379
lowerneck -19.9322 -4.60178 -4.58388
upperneck 26.5465 -6.19801 4.68909
head 12.4047 -2.49189 1.55001
rclavicle -4.17137e-014 -2.78299e-015
rhumerus -34.0554 -1.05548 -81.8662
rradius 29.9178
rwrist 1.07192
rhand -18.2059 18.9062
rfingers 7.12502
rthumb 8.07161 -10.9197
lclavicle -4.17137e-014 -2.78299e-015
lhumerus -32.4588 0.419122 87.7642
lradius 30.3866
lwrist 26.3005
lhand -20.2267 57.7953
lfingers 7.12502
lthumb 6.12095 87.6869
rfemur -1.80676 18.0547 23.0975
rtibia 12.4003
rfoot -8.87016 -25.9444
rtoes -11.9834
lfemur -5.80106 -14.5374 -16.4741
ltibia 19.8981
lfoot -16.7517 22.0212
ltoes -20.647
67
root 11.1324 17.6127 -5.27548 -5.23239 79.655 -8.79965
lowerback 2.60645 0.0559714 0.777885
upperback -1.32442 0.156451 1.55434
thorax -2.82396 0.0833698 1.15258
lowerneck -20.1335 -4.34977 -4.33626
upperneck 27.2733 -5.81851 4.34832
head 12.6938 -2.32404 1.44744
rclavicle 2.50966e-015 -1.59028e-015
rhumerus -34.2254 -1.04512 -81.8695
rradius 30.3536
rwrist 0.705638
rhand -18.4849 18.9831
rfingers 7.12502
rthumb 7.8023 -10.8529
lclavicle 2.50966e-015 -1.59028e-015
lhumerus -32.1931 -0.0722236 88.0259
lradius 31.4808
lwrist 26.7102
lhand -20.2404 57.5953
lfingers 7.12502
lthumb 6.10773 87.4872
rfemur -1.77431 17.1198 23.3199
rtibia 11.8097
rfoot -8.51397 -25.1302
rtoes -12.4607
lfemur -6.26251 -13.7143 -15.979
ltibia 20.1575
lfoot -16.6337 21.0625
ltoes -20.7884
68
root 11.1112 17.623 -5.25727 -6.53906 79.798 -10.2378
lowerback 2.77677 0.057844 1.0418
upperback -1.2482 0.172782 1.59549
thorax -2.84116 0.0871937 1.04591
lowerneck -20.3291 -4.0614 -4.07902
upperneck 27.9749 -5.3892 4.02728
head 12.9766 -2.13215 1.35928
rclavicle 2.26118e-015 4.37326e-015
rhumerus -34.3536 -1.05164 -81.9145
rradius 30.7536
rwrist 0.142717
rhand -18.9258 19.2676
rfingers 7.12502
rthumb 7.37678 -10.5838
lclavicle 2.26118e-015 4.37326e-015
lhumerus -31.9015 -0.622496 88.2619
lradius 32.6981
lwrist 27.1551
lhand -20.3123 57.7912
lfingers 7.12502
lthumb 6.03833 87.6851
rfemur -1.72832 15.7961 23.4862
rtibia 11.1582
rfoot -8.43658 -23.844
rtoes -11.8131
lfemur -6.75775 -12.6792 -15.4921
ltibia 20.4802
lfoot -16.3618 19.9385
ltoes -21.7955
69
root 11.0881 17.633 -5.23987 -7.85613 79.9489 -11.6716
lowerback 3.01096 0.087034 1.32383
upperback -1.18064 0.227936 1.60682
thorax -2.90322 0.10964 0.896283
lowerneck -20.4465 -3.80411 -3.84389
upperneck 28.6486 -5.01393 3.77568
head 13.2446 -1.9585 1.29351
rclavicle 1.15295e-014 1.51076e-014
rhumerus -34.514 -0.983998 -82.0223
rradius 31.1382
rwrist -0.604014
rhand -19.4047 19.4834
rfingers 7.12502
rthumb 6.91449 -10.3836
lclavicle 1.15295e-014 1.51076e-014
lhumerus -31.6163 -1.18711 88.4609
lradius 33.9312
lwrist 27.5328
lhand -20.2617 57.9978
lfingers 7.12502
lthumb 6.08718 87.8904
rfemur -1.73441 14.6969 23.6589
rtibia 10.641
rfoot -8.4337 -22.7555
rtoes -11.2018
lfemur -7.27191 -11.3633 -15.0102
ltibia 20.8059
lfoot -16.0042 18.5866
ltoes -23.0455
70
root 11.0628 17.6364 -5.22323 -8.88342 80.0982 -12.7577
lowerback 3.32914 0.142071 1.50105
upperback -1.10605 0.31528 1.59663
thorax -3.00527 0.149489 0.781007
lowerneck -20.5206 -3.56617 -3.55203
upperneck 29.3381 -4.6923 3.55622
head 13.5185 -1.79711 1.22231
rclavicle -1.19768e-014 4.37326e-015
rhumerus -34.6921 -0.908315 -82.1252
rradius 31.5645
rwrist -1.20039
rhand -19.7245 19.4914
rfingers 7.12502
rthumb 6.60579 -10.3856
lclavicle -1.19768e-014 4.37326e-015
lhumerus -31.4067 -1.61956 88.6009
lradius 35.2257
lwrist 27.7537
lhand -20.0289 57.9687
lfingers 7.12502
lthumb 6.31193 87.8547
rfemur -1.73946 14.7883 23.8686
rtibia 10.379
rfoot -8.23204 -22.8229
rtoes -10.9213
lfemur -7.75474 -9.89181 -14.6076
ltibia 21.1797
lfoot -15.8289 16.9542
ltoes -23.3035
71
root 11.0374 17.6376 -5.20992 -9.38211 80.2106 -13.2348
lowerback 3.73118 0.228327 1.58925
upperback -0.994231 0.441235 1.55992
thorax -3.11592 0.209714 0.684934
lowerneck -20.6333 -3.36544 -3.25165
upperneck 30.0716 -4.43063 3.36033
head 13.8294 -1.65566 1.14849
rclavicle 1.13432e-014 1.09332e-014
rhumerus -34.7908 -0.893258 -82.1722
rradius 31.9611
rwrist -1.58258
rhand -19.8602 19.4655
rfingers 7.12502
rthumb 6.47476 -10.4156
lclavicle 1.13432e-014 1.09332e-014
lhumerus -31.2423 -2.02232 88.7419
lradius 36.5986
lwrist 27.9489
lhand -19.5912 57.9363
lfingers 7.12502
lthumb 6.73449 87.8092
rfemur -1.91107 12.6379 23.816
rtibia 10.3773
rfoot -8.47875 -20.6617
rtoes -11.2283
lfemur -8.21394 -8.33503 -14.3516
ltibia 21.7029
lfoot -15.842 15.1145
ltoes -23.1208
72
root 11.0112 17.6338 -5.20029 -9.46077 80.3119 -13.2966
lowerback 4.11043 0.3337 1.65522
upperback -0.849906 0.58966 1.49521
thorax -3.17939 0.281449 0.569921
lowerneck -20.7349 -3.22473 -3.08143
upperneck 30.7757 -4.24389 3.27861
head 14.1427 -1.54579 1.12931
rclavicle 8.19987e-015 1.21259e-014
rhumerus -34.7705 -0.838802 -82.2161
rradius 32.2691
rwrist -1.86486
rhand -19.8988 19.4763
rfingers 7.12502
rthumb 6.43754 -10.4058
lclavicle 8.19987e-015 1.21259e-014
lhumerus -30.9749 -2.39507 88.8718
lradius 37.8659
lwrist 28.0707
lhand -19.1502 57.9975
lfingers 7.12502
lthumb 7.16014 87.8564
rfemur -2.21613 10.7375 23.6826
rtibia 10.6304
rfoot -8.82352 -18.6784
rtoes -11.8959
lfemur -8.82305 -6.64964 -14.1906
ltibia 22.4718
lfoot -16.0152 13.1201
ltoes -22.741
73
root 10.9847 17.6256 -5.19515 -9.50659 80.4563 -13.346
lowerback 4.43302 0.421637 1.73155
upperback -0.677393 0.713184 1.41588
thorax -3.18083 0.340993 0.435068
lowerneck -20.8172 -3.12894 -2.93349
upperneck 31.4581 -4.13615 3.26578
head 14.4546 -1.46254 1.12829
rclavicle -2.84759e-014 5.96354e-016
rhumerus -34.6822 -0.687025 -82.2882
rradius 32.5196
rwrist -1.98644
rhand -19.8682 19.5529
rfingers 7.12502
rthumb 6.46705 -10.3284
lclavicle -2.84759e-014 5.96354e-016
lhumerus -30.6636 -2.71238 88.9421
lradius 39.0706
lwrist 28.2347
lhand -18.9704 58.1328
lfingers 7.12502
lthumb 7.33373 87.9857
rfemur -2.62685 9.09416 23.5478
rtibia 11.0737
rfoot -9.02012 -17.0367
rtoes -13.8258
lfemur -9.63073 -4.83688 -14.0695
ltibia 23.5416
lfoot -16.2599 11.0978
ltoes -22.1928
74
root 10.956 17.6154 -5.19652 -10.1161 80.607 -13.9428
lowerback 4.83035 0.486351 1.90189
upperback -0.509014 0.815455 1.35911
thorax -3.22708 0.388684 0.270838
lowerneck -20.9696 -3.08637 -2.73543
upperneck 32.2546 -4.11562 3.23156
head 14.8424 -1.40891 1.0955
rclavicle -6.11263e-015 -8.15017e-015
rhumerus -34.5524 -0.503211 -82.3512
rradius 32.723
rwrist -1.89224
rhand -19.7861 19.6189
rfingers 7.12502
rthumb 6.54628 -10.2599
lclavicle -6.11263e-015 -8.15017e-015
lhumerus -30.4315 -3.00144 88.9774
lradius 40.2718
lwrist 28.5499
lhand -19.0693 57.92
lfingers 7.12502
lthumb 7.23829 87.7762
rfemur -3.03586 7.65998 23.5146
rtibia 11.5793
rfoot -9.18235 -15.6497
rtoes -15.688
lfemur -10.6358 -3.17172 -13.8913
ltibia 25.019
lfoot -16.4221 9.29151
ltoes -21.9554
75
root 10.9264 17.6067 -5.20366 -11.6188 80.7513 -15.4377
lowerback 5.28262 0.530573 2.21859
upperback -0.343042 0.905941 1.35979
thorax -3.30471 0.428918 0.083211
lowerneck -21.0492 -3.09103 -2.65239
upperneck 32.9391 -4.15379 3.28658
head 15.179 -1.38352 1.10837
rclavicle -6.18717e-015 -7.7526e-015
rhumerus -34.3582 -0.270891 -82.3798
rradius 32.9291
rwrist -1.67351
rhand -19.6903 19.4794
rfingers 7.12502
rthumb 6.63876 -10.3966
lclavicle -6.18717e-015 -7.7526e-015
lhumerus -30.2132 -3.20228 89.0269
lradius 41.4167
lwrist 28.9275
lhand -19.2703 56.86
lfingers 7.12502
lthumb 7.04427 86.7227
rfemur -3.4144 6.5032 23.6309
rtibia 12.0264
rfoot -9.38099 -14.4737
rtoes -16.0748
lfemur -11.8989 -1.86142 -13.5894
ltibia 26.9563
lfoot -16.1622 7.77688
ltoes -22.8321
76
root 10.899 17.598 -5.21557 -13.6229 80.916 -17.4449
lowerback 5.72201 0.558702 2.58555
upperback -0.152043 0.983426 1.42053
thorax -3.34858 0.463564 -0.0701567
lowerneck -20.9936 -3.15208 -2.7333
upperneck 33.376 -4.26248 3.46855
head 15.3856 -1.3972 1.18769
rclavicle -9.36773e-015 -4.57205e-015
rhumerus -34.0874 0.0429766 -82.3193
rradius 33.1266
rwrist -1.46816
rhand -19.5772 19.4096
rfingers 7.12502
rthumb 6.74802 -10.4629
lclavicle -9.36773e-015 -4.57205e-015
lhumerus -29.963 -3.21463 89.0933
lradius 42.5312
lwrist 29.1405
lhand -19.072 57.4859
lfingers 7.12502
lthumb 7.23564 87.3422
rfemur -3.65873 5.68972 23.8196
rtibia 12.2047
rfoot -9.39859 -13.6525
rtoes -15.3828
lfemur -13.4176 -0.893168 -13.2336
ltibia 29.356
lfoot -15.5007 6.39294
ltoes -24.2052
